<svg xmlns="http://www.w3.org/2000/svg" viewBox="0 0 128 128">
  <defs>
    <linearGradient id="bg" x1="0" y1="0" x2="1" y2="1">
      <stop offset="0%" stop-color="#0B1120"/>
      <stop offset="100%" stop-color="#020617"/>
    </linearGradient>

    <linearGradient id="g1" x1="0" y1="0" x2="1" y2="1">
      <stop offset="0%" stop-color="#67E8F9"/>
      <stop offset="100%" stop-color="#2563EB"/>
    </linearGradient>

    <linearGradient id="g2" x1="1" y1="0" x2="0" y2="1">
      <stop offset="0%" stop-color="#A855F7"/>
      <stop offset="100%" stop-color="#38BDF8"/>
    </linearGradient>

    <filter id="shadow" x="-50%" y="-50%" width="200%" height="200%">
      <feDropShadow dx="0" dy="5" stdDeviation="8" flood-opacity=".28"/>
    </filter>
  </defs>

  <!-- Background -->
  <rect width="128" height="128" rx="30" fill="url(#bg)"/>

  <!-- Border -->
  <rect x="2" y="2" width="124" height="124"
        rx="28"
        fill="none"
        stroke="#1E293B"
        stroke-width="2"/>

  <g filter="url(#shadow)">

    <!-- Top Ribbon -->
    <path
      d="
      M92 30
      L76 30
      L50 56
      L83 56
      L95 68
      L49 68
      L31 50
      L31 38
      L43 26
      L92 26
      Z"
      fill="url(#g1)"
    />

    <!-- Bottom Ribbon -->
    <path
      d="
      M36 98
      L52 98
      L78 72
      L45 72
      L33 60
      L79 60
      L97 78
      L97 90
      L85 102
      L36 102
      Z"
      fill="url(#g2)"
    />

  </g>

  <!-- Premium Accent -->
  <circle cx="101" cy="27" r="3" fill="#67E8F9"/>
</svg>